Ground reaction force (.MOT) by Lee-Son Toolkit
nRows=100
nColumns=19

name Static_grf.mot
datacolumns 19
datarows 100
range 0.66 0.759
endheader
time	1_ground_force_vx	1_ground_force_vy	1_ground_force_vz	1_ground_force_px	1_ground_force_py	1_ground_force_pz	2_ground_force_vx	2_ground_force_vy	2_ground_force_vz	2_ground_force_px	2_ground_force_py	2_ground_force_pz	1_ground_torque_x	1_ground_torque_y	1_ground_torque_z	2_ground_torque_x	2_ground_torque_y	2_ground_torque_z
0.66	27.4951	310.325	-3.5687	0.369458	0	0.281133	-36.764	329.257	4.90166	0.755759	0	0.280703	0	-3.13783	0	0	3.24972	0
0.661	27.6243	311.026	-3.59272	0.369382	0	0.281234	-36.6918	328.991	5.17338	0.755148	0	0.280718	0	-3.11342	0	0	3.18842	0
0.662	27.3952	311.829	-3.8716	0.375004	0	0.281471	-36.9605	329.084	4.88088	0.755065	0	0.280704	0	-3.15529	0	0	3.24557	0
0.663	26.8225	311.202	-3.81859	0.36927	0	0.280924	-36.7677	326.981	4.77488	0.754546	0	0.281135	0	-3.11964	0	0	3.27808	0
0.664	27.4557	307.017	-3.7131	0.370909	0	0.28158	-36.9505	330.655	5.00852	0.756048	0	0.280415	0	-2.96836	0	0	3.14097	0
0.665	27.188	322.647	-3.96172	0.364795	0	0.281111	-36.7975	327.95	4.95192	0.754682	0	0.28042	0	-3.09389	0	0	3.29784	0
0.666	27.426	311.029	-4.10698	0.36951	0	0.281046	-36.6054	328.902	5.01411	0.755832	0	0.280641	0	-3.13408	0	0	3.1948	0
0.667	27.3643	304.22	-3.72813	0.371919	0	0.281409	-36.7729	330.915	4.98575	0.756212	0	0.280347	0	-2.97239	0	0	3.10993	0
0.668	26.2705	310.763	-4.1104	0.368878	0	0.28028	-35.795	328.719	5.02115	0.755409	0	0.280912	0	-3.13101	0	0	3.18529	0
0.669	27.2147	310.054	-4.01624	0.369441	0	0.276966	-38.5953	328.827	5.27652	0.75503	0	0.281445	0	-3.01014	0	0	3.23423	0
0.67	26.7361	310.766	-3.79194	0.369245	0	0.281402	-36.9309	330.665	4.92278	0.755853	0	0.280635	0	-3.12048	0	0	3.37026	0
0.671	27.1035	315.923	-3.96607	0.367282	0	0.280868	-36.703	327.594	4.75067	0.75459	0	0.280669	0	-3.02893	0	0	3.22356	0
0.672	27.4029	311.03	-4.17791	0.370926	0	0.280764	-36.7132	328.631	5.95678	0.755225	0	0.280632	0	-3.18344	0	0	3.0273	0
0.673	27.2476	310.941	-4.08374	0.369429	0	0.281144	-37.7239	328.998	5.12099	0.755461	0	0.280741	0	-3.16785	0	0	3.18066	0
0.674	27.1142	310.499	-3.23027	0.368473	0	0.281694	-36.8247	328.824	4.58895	0.75518	0	0.280258	0	-3.10204	0	0	3.24475	0
0.675	27.2315	310.068	-4.12333	0.369464	0	0.281472	-36.7415	329.341	5.12533	0.75571	0	0.280585	0	-3.17366	0	0	3.18101	0
0.676	27.7637	310.33	-4.07878	0.369615	0	0.281594	-36.4706	329.339	4.79344	0.75547	0	0.281333	0	-3.17752	0	0	3.26172	0
0.677	27.1	315.296	-4.11907	0.367642	0	0.280995	-36.9978	331.178	4.87241	0.756235	0	0.280617	0	-3.4404	0	0	3.12014	0
0.678	27.2318	310.157	-4.30238	0.369584	0	0.281447	-35.0365	328.976	4.8697	0.755645	0	0.28159	0	-3.16865	0	0	3.27968	0
0.679	27.0118	309.719	-4.01264	0.36973	0	0.281248	-37.0101	329.787	4.20447	0.75566	0	0.28065	0	-3.12544	0	0	3.27405	0
0.68	26.926	309.278	-4.677	0.36853	0	0.281361	-36.5611	329.516	4.67928	0.755568	0	0.280988	0	-3.28151	0	0	3.2402	0
0.681	26.9162	307.627	-4.11552	0.370652	0	0.281731	-36.536	329.518	4.65838	0.755101	0	0.280749	0	-3.09235	0	0	3.23585	0
0.682	26.6506	309.893	-3.09565	0.369952	0	0.28198	-36.5103	328.638	5.30931	0.755047	0	0.280629	0	-3.06118	0	0	3.15448	0
0.683	26.826	304.215	-3.97065	0.371911	0	0.281887	-36.6712	329.174	4.56804	0.755293	0	0.280569	0	-3.19865	0	0	3.31656	0
0.684	26.1454	309.372	-4.29771	0.369568	0	0.281905	-37.5	329.263	4.72025	0.755278	0	0.280942	0	-3.1882	0	0	3.27461	0
0.685	27.0075	310.155	-4.21111	0.369307	0	0.281737	-36.5154	329.519	4.6799	0.755343	0	0.280635	0	-3.2162	0	0	3.2433	0
0.686	26.7877	309.983	-4.61363	0.369595	0	0.281537	-36.8869	328.297	4.45668	0.754876	0	0.280756	0	-3.23659	0	0	3.26801	0
0.687	27.0288	310.411	-4.13091	0.36924	0	0.280349	-36.9867	329.698	4.67582	0.755392	0	0.280335	0	-3.19697	0	0	3.20999	0
0.688	26.872	310.858	-5.01929	0.369475	0	0.281276	-36.7857	329.602	4.52196	0.755687	0	0.281729	0	-3.26585	0	0	3.27944	0
0.689	26.9151	310.857	-4.72922	0.369913	0	0.281438	-36.2896	329.432	4.56708	0.75531	0	0.279857	0	-3.26357	0	0	3.17142	0
0.69	26.7662	309.807	-4.32329	0.369446	0	0.281486	-36.7795	329.616	3.78378	0.754815	0	0.280712	0	-3.19409	0	0	3.34015	0
0.691	26.9416	310.681	-5.57468	0.368351	0	0.281146	-36.7573	329.072	5.23941	0.75511	0	0.280903	0	-3.3351	0	0	3.08293	0
0.692	24.4043	310.331	-4.44568	0.369392	0	0.280282	-38.1961	329.879	4.51346	0.755304	0	0.28119	0	-3.13544	0	0	3.24821	0
0.693	27.0844	310.507	-0.941516	0.374211	0	0.282154	-36.9021	330.224	4.51752	0.755809	0	0.280358	0	-2.84372	0	0	3.24431	0
0.694	26.716	310.506	-4.10187	0.369284	0	0.281617	-36.5519	328.561	4.23219	0.754981	0	0.280098	0	-3.16934	0	0	3.24312	0
0.695	26.8532	306.572	-4.15581	0.370915	0	0.281854	-36.536	328.903	4.58924	0.755719	0	0.280877	0	-3.2709	0	0	3.22357	0
0.696	27.1173	310.33	-4.32383	0.369592	0	0.281689	-37.3458	330.048	4.69657	0.755287	0	0.280652	0	-3.25746	0	0	3.1983	0
0.697	26.5841	310.242	-3.85825	0.369434	0	0.281254	-36.5448	330.74	4.69842	0.755751	0	0.280604	0	-3.12806	0	0	3.16531	0
0.698	26.4821	310.441	-4.05752	0.369345	0	0.281739	-36.6903	332.315	4.67044	0.756413	0	0.280498	0	-2.64797	0	0	3.13385	0
0.699	26.6779	309.543	-3.98873	0.369601	0	0.281412	-36.6462	329.435	4.18586	0.75514	0	0.280451	0	-3.16819	0	0	3.2414	0
0.7	26.8065	310.069	-3.76516	0.369933	0	0.281922	-36.6904	329.774	5.3319	0.754452	0	0.280922	0	-3.15736	0	0	3.10922	0
0.701	26.588	309.543	-3.92139	0.369868	0	0.281577	-36.6247	329.521	4.32128	0.755119	0	0.280732	0	-3.18233	0	0	3.25394	0
0.702	27.0569	309.284	-3.78146	0.369753	0	0.282376	-36.83	329.779	4.74444	0.75547	0	0.280931	0	-3.1616	0	0	3.18982	0
0.703	27.5176	310.239	-3.94488	0.369526	0	0.281553	-36.7752	329.497	4.69561	0.755313	0	0.28073	0	-3.23282	0	0	2.79478	0
0.704	26.8514	310.151	-4.10478	0.369443	0	0.280917	-36.7791	329.082	4.63562	0.754937	0	0.280817	0	-3.22719	0	0	3.23405	0
0.705	26.7207	312.683	-4.02204	0.368641	0	0.281137	-36.6132	330.475	4.58486	0.75627	0	0.281037	0	-3.26793	0	0	3.17924	0
0.706	27.0265	310.412	-3.7486	0.369609	0	0.281017	-36.5814	329.785	4.41123	0.755008	0	0.280471	0	-3.19712	0	0	3.26585	0
0.707	26.7184	309.978	-3.94724	0.369897	0	0.281221	-36.5402	330.124	4.56934	0.75544	0	0.282041	0	-3.2033	0	0	3.27979	0
0.708	27.1376	310.325	-3.70249	0.369751	0	0.281243	-36.4726	329.863	4.79031	0.755584	0	0.280729	0	-3.21732	0	0	3.16451	0
0.709	26.8302	309.977	-4.10409	0.369726	0	0.281015	-36.7458	330.3	5.28162	0.755682	0	0.280814	0	-3.22623	0	0	3.14794	0
0.71	26.8926	310.767	-4.82182	0.370532	0	0.280968	-36.2891	330.328	2.48632	0.754838	0	0.280482	0	-3.3305	0	0	3.55277	0
0.711	26.9168	310.407	-3.8693	0.369691	0	0.279488	-36.2791	327.947	4.5064	0.75451	0	0.280269	0	-3.18909	0	0	3.28533	0
0.712	26.7186	310.065	-4.01462	0.369522	0	0.281085	-36.5634	329.789	4.24229	0.752259	0	0.280531	0	-3.18871	0	0	3.23183	0
0.713	26.764	309.801	-3.90197	0.369509	0	0.281107	-36.5397	329.971	2.90678	0.75583	0	0.280582	0	-3.21158	0	0	3.46144	0
0.714	26.5283	311.458	-3.48446	0.368852	0	0.280929	-36.6826	331.094	4.65169	0.755947	0	0.28047	0	-3.17726	0	0	3.19163	0
0.715	26.599	310.495	-2.83267	0.369364	0	0.281379	-36.673	329.782	4.76867	0.755231	0	0.28058	0	-3.15217	0	0	3.22875	0
0.716	26.7023	308.846	-3.77022	0.372958	0	0.281191	-36.653	329.272	3.12785	0.756463	0	0.280193	0	-3.22942	0	0	3.44186	0
0.717	27.1374	310.234	-3.43586	0.369632	0	0.281	-36.564	329.959	4.58806	0.755591	0	0.280316	0	-3.20373	0	0	3.25556	0
0.718	26.9395	309.973	-3.65691	0.369339	0	0.281102	-36.8953	329.432	4.74583	0.755253	0	0.280911	0	-3.2225	0	0	3.24199	0
0.719	26.6922	310.409	-3.63795	0.369134	0	0.280783	-37.392	330.045	4.80876	0.755482	0	0.281167	0	-3.19453	0	0	3.21177	0
0.72	26.984	309.885	-3.39069	0.369783	0	0.280954	-35.039	329.682	4.79711	0.7557	0	0.279912	0	-3.1958	0	0	3.15083	0
0.721	26.7417	309.703	-3.47319	0.366199	0	0.280969	-36.7903	330.305	4.98892	0.755711	0	0.280392	0	-3.18182	0	0	3.1621	0
0.722	27.0022	310.937	-4.57806	0.3698	0	0.280592	-37.104	329.955	5.18874	0.755901	0	0.280518	0	-3.31872	0	0	3.15519	0
0.723	27.0959	309.972	-3.70315	0.369299	0	0.280787	-37.1176	329.701	4.81378	0.754578	0	0.280499	0	-3.22037	0	0	3.25888	0
0.724	27.0531	309.798	-3.61366	0.369362	0	0.280771	-36.9042	330.31	4.83132	0.755906	0	0.280429	0	-3.1775	0	0	3.23769	0
0.725	27.0294	309.971	-3.59489	0.369569	0	0.280337	-36.8763	333.018	4.82409	0.756782	0	0.280297	0	-3.18954	0	0	3.14329	0
0.726	26.1605	310.057	-3.44118	0.369204	0	0.280013	-37.3886	329.612	4.9429	0.755156	0	0.280139	0	-3.15277	0	0	3.16545	0
0.727	25.8505	309.364	-3.40388	0.369344	0	0.282207	-36.5375	329.429	5.01535	0.755304	0	0.280331	0	-3.23421	0	0	3.17438	0
0.728	26.8309	306.3	-3.56073	0.371117	0	0.280562	-36.7637	329.264	4.72242	0.755563	0	0.280059	0	-3.26213	0	0	3.30004	0
0.729	26.8493	309.968	-3.30303	0.369205	0	0.28059	-36.4945	329.435	4.79155	0.755434	0	0.280181	0	-3.2119	0	0	3.26911	0
0.73	26.7818	309.627	-3.15181	0.369174	0	0.283345	-36.5675	330.395	5.12451	0.755638	0	0.279909	0	-3.25004	0	0	3.1761	0
0.731	26.9678	309.671	-3.34458	0.369209	0	0.28067	-36.8032	332.053	5.02763	0.756583	0	0.280234	0	-4.04094	0	0	3.10155	0
0.732	26.802	310.577	-3.42238	0.369082	0	0.279602	-36.5318	328.473	4.74999	0.754946	0	0.280437	0	-3.19261	0	0	3.29585	0
0.733	26.8538	309.618	-3.4628	0.36947	0	0.279835	-37.1841	328.65	5.21468	0.755122	0	0.279967	0	-3.17037	0	0	3.20331	0
0.734	27.4743	309.704	-3.39185	0.369454	0	0.280463	-36.5387	328.909	5.10219	0.755739	0	0.279356	0	-3.25665	0	0	3.16523	0
0.735	27.024	310.669	-3.46127	0.36892	0	0.280551	-36.9264	329.96	5.1662	0.755994	0	0.279839	0	-3.1774	0	0	3.18179	0
0.736	26.4543	309.357	-3.28331	0.369677	0	0.279989	-36.9009	329.781	5.05493	0.755884	0	0.28021	0	-3.14982	0	0	3.14824	0
0.737	27.0959	310.22	-3.25411	0.369202	0	0.277682	-37.0789	329.441	4.92158	0.755601	0	0.279905	0	-3.1141	0	0	3.26788	0
0.738	26.2952	309.881	-3.59505	0.368982	0	0.280183	-36.8061	323.303	5.18515	0.75284	0	0.280254	0	-3.19501	0	0	3.10575	0
0.739	27.0074	310.056	-4.01905	0.368945	0	0.280094	-37.0581	329.09	4.92035	0.756103	0	0.279945	0	-3.25949	0	0	3.28631	0
0.74	26.849	310.488	-3.67191	0.369032	0	0.278799	-37.2071	329.001	5.16983	0.754976	0	0.279951	0	-3.18695	0	0	3.19924	0
0.741	26.8912	310.313	-3.35047	0.368764	0	0.280173	-36.8049	328.823	5.1261	0.755307	0	0.279861	0	-3.24499	0	0	3.20171	0
0.742	27.1715	308.655	-3.43716	0.369617	0	0.279799	-36.7466	329.873	5.05567	0.755951	0	0.279825	0	-3.20958	0	0	3.21367	0
0.743	24.3898	308.737	-3.42829	0.369188	0	0.277841	-38.3524	329.099	5.22903	0.755229	0	0.279751	0	-3.14128	0	0	3.21098	0
0.744	27.5015	309.265	-3.41607	0.369137	0	0.279786	-37.2992	328.83	4.85482	0.755452	0	0.280118	0	-3.19905	0	0	3.30008	0
0.745	26.8259	307.437	-3.41097	0.370062	0	0.279923	-37.0485	328.652	5.14963	0.754845	0	0.279927	0	-3.10152	0	0	3.23977	0
0.746	26.8201	308.224	-3.25471	0.369526	0	0.280296	-36.7762	331.097	4.98532	0.756298	0	0.279872	0	-3.06912	0	0	3.18245	0
0.747	26.5311	308.797	-3.34679	0.369129	0	0.279821	-36.7589	328.222	5.0397	0.75503	0	0.27945	0	-3.95051	0	0	3.37633	0
0.748	26.8422	308.132	-3.54638	0.369535	0	0.27989	-36.6269	328.739	4.98915	0.75563	0	0.278813	0	-3.18725	0	0	3.16628	0
0.749	26.7908	309.092	-3.72685	0.368927	0	0.279937	-36.671	328.827	4.99319	0.75524	0	0.279754	0	-3.23524	0	0	3.27383	0
0.75	27.6859	308.218	-3.43081	0.369268	0	0.280431	-36.4728	329.61	5.03665	0.755372	0	0.279534	0	-3.24011	0	0	3.19125	0
0.751	26.9734	308.394	-3.36875	0.369509	0	0.279906	-36.7747	330.669	4.22278	0.756472	0	0.279485	0	-3.17121	0	0	3.30671	0
0.752	26.01	309.444	-3.61925	0.369057	0	0.279663	-36.7407	329.263	5.0812	0.755362	0	0.279755	0	-3.15891	0	0	3.2352	0
0.753	27.0331	309.53	-3.23827	0.368847	0	0.279863	-36.67	328.921	4.78751	0.755206	0	0.27819	0	-3.09896	0	0	3.17916	0
0.754	27.0475	310.929	-3.68909	0.367957	0	0.279617	-36.6964	329.175	4.92409	0.755593	0	0.279942	0	-3.11767	0	0	3.25725	0
0.755	26.9922	309.178	-3.66053	0.367834	0	0.279566	-36.8607	327.865	5.04199	0.754107	0	0.279813	0	-3.16152	0	0	3.24118	0
0.756	27.0621	308.912	-3.96706	0.365587	0	0.279682	-36.679	329.006	4.53982	0.756475	0	0.27957	0	-3.19166	0	0	3.34961	0
0.757	27.3041	309.009	-3.83297	0.36881	0	0.2807	-37.0094	329.181	4.60899	0.755497	0	0.279898	0	-3.2168	0	0	3.31657	0
0.758	27.017	308.391	-2.90156	0.369422	0	0.279716	-36.6924	328.911	5.28396	0.755068	0	0.279527	0	-3.11264	0	0	3.18179	0
0.759	27.1294	308.472	-3.23134	0.366233	0	0.279601	-36.8723	328.39	5.17	0.7555	0	0.279466	0	-3.14807	0	0	3.23653	0
